<?xml version="1.0" standalone="no"?>
<!DOCTYPE svg PUBLIC "-//W3C//DTD SVG 20010904//EN"
 "http://www.w3.org/TR/2001/REC-SVG-20010904/DTD/svg10.dtd">
<svg version="1.0" xmlns="http://www.w3.org/2000/svg"
 width="1066.000000pt" height="385.000000pt" viewBox="0 0 1066.000000 385.000000"
 preserveAspectRatio="xMidYMid meet">
<metadata>
Created by potrace 1.15, written by Peter Selinger 2001-2017
</metadata>
<g transform="translate(0.000000,385.000000) scale(0.100000,-0.100000)"
fill="#000000" stroke="none">
<path d="M4060 3531 c-143 -19 -202 -30 -340 -62 -84 -20 -291 -75 -320 -86
-56 -21 -182 -67 -215 -79 -151 -55 -407 -170 -413 -186 -2 -4 -8 -8 -14 -8
-22 0 -331 -167 -392 -213 -6 -4 -58 -37 -116 -74 -95 -61 -187 -126 -200
-142 -3 -3 -17 -12 -32 -20 -15 -8 -36 -21 -45 -30 -10 -9 -53 -42 -95 -74
-42 -33 -98 -79 -124 -103 -48 -46 -66 -50 -46 -11 26 52 102 219 102 224 0 3
23 56 51 117 50 110 56 123 99 221 12 28 26 59 32 69 5 10 32 70 59 133 55
128 61 174 27 197 -43 30 -66 18 -131 -67 -12 -16 -29 -36 -38 -45 -14 -16
-53 -73 -113 -169 -14 -24 -26 -50 -26 -58 0 -9 -7 -18 -15 -21 -8 -4 -15 -12
-15 -20 0 -17 -12 -18 -27 -3 -29 29 -60 -9 -93 -116 -16 -51 -109 -238 -197
-395 -11 -19 -33 -60 -50 -90 -78 -143 -97 -176 -122 -219 -15 -25 -34 -61
-42 -78 -7 -18 -17 -33 -21 -33 -5 0 -8 -4 -8 -9 0 -4 -19 -41 -41 -82 -23
-41 -59 -105 -79 -144 -21 -38 -56 -101 -77 -140 -39 -68 -134 -239 -178 -320
-12 -22 -41 -71 -64 -108 -23 -38 -52 -89 -65 -115 -13 -26 -76 -150 -140
-277 -132 -262 -165 -341 -173 -419 -7 -66 11 -101 56 -111 53 -11 55 -9 179
186 33 52 78 129 99 170 22 41 60 111 86 156 26 45 47 86 47 90 0 14 49 69 50
55 0 -21 81 -102 143 -144 84 -57 179 -94 289 -112 83 -14 121 -15 260 -6 90
6 210 17 268 26 58 8 119 17 135 20 27 4 33 -1 60 -43 77 -120 261 -153 485
-87 141 42 302 100 370 134 41 21 86 41 100 45 25 7 391 186 400 195 3 3 48
31 100 63 52 32 102 62 110 67 8 5 47 29 85 52 l70 42 315 7 c489 11 833 25
1140 49 121 9 483 24 880 35 107 3 330 10 495 15 165 6 428 12 585 15 157 2
416 7 575 10 160 2 443 7 630 10 420 7 684 13 840 20 66 3 296 10 510 15 389
10 691 25 718 36 17 6 39 72 26 79 -5 3 -17 1 -28 -5 -12 -6 -127 -10 -308
-10 -312 -1 -957 -14 -1498 -30 -187 -5 -430 -10 -540 -10 -178 0 -593 -9
-1105 -25 -96 -2 -267 -7 -380 -10 -602 -16 -987 -30 -1380 -50 -419 -21
-1030 -39 -995 -28 11 3 85 27 165 53 80 26 186 59 235 75 50 15 99 31 110 36
28 12 210 78 264 95 24 8 49 18 55 23 15 12 274 121 287 121 7 0 39 13 73 29
33 17 111 51 171 77 61 26 130 57 155 69 25 12 79 38 120 56 109 49 204 100
345 184 69 41 128 75 131 75 3 0 34 20 68 46 149 110 211 162 249 209 23 28
44 52 48 55 8 6 58 85 81 127 9 17 27 62 39 99 27 82 22 176 -13 273 -57 160
-242 274 -511 316 -207 32 -642 17 -917 -31 -47 -8 -125 -21 -174 -29 -49 -9
-93 -18 -97 -21 -5 -3 -23 9 -41 25 -72 67 -96 82 -173 113 -150 58 -217 68
-475 73 -188 3 -262 0 -370 -14z m665 -80 c121 -23 294 -98 288 -126 -2 -9
-73 -30 -136 -40 -81 -14 -491 -135 -662 -195 -426 -151 -877 -366 -1255 -598
-167 -103 -202 -127 -349 -235 -124 -92 -148 -113 -252 -218 -131 -133 -177
-240 -146 -341 l15 -47 -47 -43 c-50 -47 -225 -174 -281 -204 -19 -10 -42 -24
-51 -31 -24 -20 -134 -72 -234 -111 -126 -49 -233 -47 -249 5 -23 79 -9 198
47 388 42 145 109 347 130 395 9 19 24 57 34 83 18 49 55 88 177 192 33 28 67
57 77 66 9 9 23 21 31 25 8 5 35 26 59 46 61 52 233 181 299 225 30 20 73 48
95 63 61 42 222 138 300 180 218 117 331 175 380 196 260 108 346 141 518 193
231 72 460 119 670 141 110 11 467 5 542 -9z m1646 -125 c189 -43 325 -118
374 -207 28 -50 30 -61 30 -159 0 -101 -2 -108 -37 -175 -50 -98 -136 -209
-215 -278 -59 -52 -196 -155 -241 -182 -10 -5 -35 -21 -57 -35 -109 -72 -225
-129 -475 -237 -235 -101 -289 -123 -535 -213 -77 -28 -168 -62 -203 -76 -34
-13 -67 -24 -74 -24 -6 0 -48 -13 -92 -29 -271 -98 -831 -269 -842 -258 -3 2
24 23 58 47 35 24 72 52 83 61 81 70 105 89 147 117 25 18 63 48 84 67 20 19
38 35 40 35 1 0 15 12 31 28 16 15 65 59 109 99 129 116 252 241 269 273 9 16
19 30 24 30 5 0 25 21 44 48 19 26 66 89 104 139 85 116 120 171 128 205 4 15
13 32 21 39 8 6 14 18 14 25 0 7 9 33 19 56 55 125 66 310 25 423 -45 121 -56
107 108 138 124 23 308 47 458 61 107 9 536 -3 601 -18z m-1245 -153 c26 -61
29 -79 28 -173 0 -61 -6 -122 -14 -145 -7 -22 -15 -49 -16 -60 -3 -26 -84
-199 -95 -203 -5 -2 -9 -9 -9 -16 0 -7 -23 -46 -52 -87 -50 -73 -235 -309
-250 -320 -4 -3 -47 -43 -95 -90 -81 -78 -151 -142 -228 -207 -16 -14 -45 -38
-62 -55 l-33 -30 -24 26 c-14 15 -31 27 -38 27 -12 0 -81 -40 -213 -122 -59
-36 -165 -92 -441 -233 l-202 -103 -176 9 c-218 10 -273 16 -406 40 -120 22
-221 54 -310 99 -92 46 -93 48 -59 97 16 23 32 43 36 45 5 1 24 23 43 48 19
25 49 59 65 77 17 18 38 45 45 60 8 15 25 39 37 52 16 16 21 31 17 45 -7 25
-32 46 -53 46 -9 -1 -83 -66 -166 -146 -140 -135 -150 -143 -153 -118 -12 95
88 215 355 430 43 35 351 244 359 244 3 0 25 14 49 30 24 17 46 30 49 30 3 0
49 26 103 57 222 128 644 328 907 429 264 102 660 222 896 272 77 17 76 17
106 -55z m-3284 -185 c-28 -57 -69 -146 -92 -198 -23 -52 -50 -113 -60 -135
-10 -22 -42 -96 -70 -165 -29 -69 -63 -148 -76 -177 -13 -28 -24 -58 -25 -65
-1 -14 -77 -83 -84 -76 -2 2 38 89 90 193 52 104 95 192 95 195 0 4 17 38 38
76 21 38 57 116 81 174 47 115 140 294 148 286 3 -3 -17 -51 -45 -108z m-459
-1088 c-75 -226 -124 -438 -122 -535 1 -113 47 -176 153 -211 74 -25 171 -8
311 55 22 10 50 21 61 25 31 10 217 117 234 136 3 3 22 14 43 25 22 11 44 27
50 36 7 9 27 24 46 34 19 9 45 30 58 46 14 16 30 29 36 29 6 0 0 -11 -12 -24
-57 -61 -241 -452 -241 -513 0 -10 -5 -34 -10 -54 l-10 -36 -108 -21 c-59 -12
-145 -27 -192 -33 -112 -16 -350 -16 -425 0 -68 14 -191 72 -226 106 -56 54
-78 84 -92 125 -14 41 -13 47 6 90 12 25 31 59 42 75 11 17 28 46 37 65 25 55
75 155 138 280 32 63 73 147 91 185 18 39 44 86 58 105 25 34 104 121 107 117
1 -1 -14 -49 -33 -107z m1067 -448 c75 -40 256 -101 340 -115 149 -26 231 -36
292 -38 82 -3 87 -12 20 -42 -33 -15 -62 -27 -66 -27 -3 0 -34 -13 -68 -29
-62 -27 -243 -89 -443 -150 -81 -24 -415 -111 -429 -111 -4 0 9 62 24 115 6
22 41 99 76 172 35 72 64 136 64 141 0 6 10 22 23 36 12 14 35 44 50 66 l29
40 31 -22 c17 -13 43 -29 57 -36z m1118 -177 c-40 -40 -524 -298 -638 -340
-19 -7 -60 -24 -90 -38 -94 -44 -170 -73 -305 -117 -104 -34 -149 -44 -225
-48 -83 -4 -101 -2 -142 18 -50 23 -86 66 -70 82 5 5 24 11 43 13 19 3 70 16
113 30 43 14 89 25 102 25 25 0 127 30 209 60 28 11 93 31 145 46 52 14 144
46 205 71 60 25 144 58 187 74 73 27 88 33 141 61 99 52 153 67 241 68 49 0
87 -2 84 -5z m-2752 -64 c-3 -4 -1 -23 4 -41 9 -30 5 -43 -42 -129 -28 -53
-76 -139 -106 -191 -30 -52 -69 -124 -87 -160 -17 -36 -53 -100 -78 -143 -26
-43 -47 -83 -47 -88 0 -5 -7 -9 -15 -9 -12 0 -14 7 -9 28 16 63 99 245 174
377 22 39 42 77 45 85 4 8 13 26 21 40 8 14 40 73 71 133 31 59 60 107 65 107
5 0 7 -4 4 -9z"/>
</g>
</svg>
